<mxfile host="app.diagrams.net" modified="2023-08-21T06:41:18.813Z" agent="Mozilla/5.0 (Macintosh; Intel Mac OS X 10_15_7) AppleWebKit/537.36 (KHTML, like Gecko) Chrome/115.0.0.0 Safari/537.36" version="21.3.4" etag="PGV3xxDBF1rBgKyH3W4E" type="github">
  <diagram name="第 1 页" id="WZWeo2rAm-pOlNrmYiAx">
    <mxGraphModel>
      <root>
        <mxCell id="0" />
        <mxCell id="1" parent="0" />
      </root>
    </mxGraphModel>
  </diagram>
</mxfile>
